#!OML:ASF E:/inclinewalkrobotboard/Project1/Captureday1/Session1/subject1.ASF
:FULLY-SPECIFIED
:DEGREES
176
root 0 0 0 -2.6416784863398446 -6.0648487124826005 -6.393174118802158
lowerback 9.57905039675142 2.7189290223784455 5.005689836337267
upperback 0.9940990192364301 4.175178858938219 1.082486556688958
thorax -4.148367635224911 1.9691025619050442 -2.177825786887412
lowerneck -12.8744501148605 -3.5242317858706973 -1.8918849616174507
upperneck 14.74150998619377 -4.920757306863153 3.3403084532405307
head 6.624295131074526 -2.249107236667298 0.8988754314088372
rclavicle -2.7450446518423362E-15 -1.7075906196176043E-15
rhumerus -30.094320624378412 -18.22775547456163 -83.25515118767167
rradius 22.087162942613404
rwrist 14.048141988076331
rhand -19.49458327901538 30.73516531945586
rfingers 7.125020000000003
rthumb 6.84259946978961 0.6299460294804149
lclavicle -3.9524154286236614E-15 -1.4466756801865929E-15
lhumerus -34.781500557857946 7.617490441817382 79.5056413069583
lradius 17.41657207311365
lwrist -0.6354795429395219
lhand -27.46893514250084 27.69846399497251
lfingers 7.125019999999995
lthumb -0.9157294906150089 57.79478389167183
rfemur -13.581491743838708 4.894671235473611 27.22297060537744
rtibia 41.985640266115475
rfoot -7.8222906002719945 -6.5143233709987145
rtoes 5.261725515952986
lfemur -14.152690654884031 -2.0819790816501946 -19.047946768172686
ltibia 33.709737729587154
lfoot -4.908349558486222 -2.901646178332006
ltoes -1.0545611662103127
177
root 0 0 0 -2.9578082951125215 -6.03555949095783 -5.996908707396777
lowerback 9.702991912250527 2.5544394202081477 4.726971319257276
upperback 1.334305266920236 3.9276010013604985 1.138663704818147
thorax -3.8476632110235105 1.852934474893482 -1.917526583384769
lowerneck -13.003390835518019 -3.4605280992583 -1.9674752144923144
upperneck 16.040220483473444 -4.811943760417892 3.190151219396688
head 7.043679177541632 -2.1944457895692726 0.8523690614340809
rclavicle -2.747162857260251E-15 -1.8332401979317185E-15
rhumerus -30.106696825270916 -18.434576752993085 -83.26636117469668
rradius 22.277782255400915
rwrist 14.383005793062548
rhand -19.637004243825345 30.69017427910034
rfingers 7.125020000000003
rthumb 6.706730824075569 0.569304459416081
lclavicle -3.935099117955948E-15 -1.5915240043959563E-15
lhumerus -34.69923266884262 7.45721176823047 79.49840601612576
lradius 17.630822028692585
lwrist -0.43892989651576464
lhand -27.525694111486498 27.788698347214552
lfingers 7.125019999999997
lthumb -0.9703858779122898 57.88836273266473
rfemur -14.291660941282371 4.752075682071436 26.899711660251953
rtibia 42.50573392741143
rfoot -7.449380833829357 -6.590358529915186
rtoes 5.289678278938319
lfemur -12.531646543609893 -2.724280605813791 -19.568302468322727
ltibia 32.60133952638529
lfoot -5.8677632614951705 -2.4138248690808486
ltoes -0.8020345807873177
178
root 0 0 0 -3.467645438241186 -5.904472978473685 -5.259657936625959
lowerback 9.491812766089732 2.253974078209495 4.141817985308345
upperback 1.6973387105833928 3.4616605337281694 1.1964878556869318
thorax -3.3354740616790997 1.6360711423870906 -1.4401888261749782
lowerneck -13.314322276178363 -3.2739051818101803 -2.044818930656725
upperneck 18.84515417291503 -4.573028584703321 2.966389627219101
head 7.990495536214121 -2.05552457756297 0.7784195386877437
rclavicle -2.8197203423368355E-15 -1.9006609139465222E-15
rhumerus -30.352263161964974 -18.72402519440332 -83.4258945799489
rradius 22.227691842922482
rwrist 14.82616201358072
rhand -19.774548652470173 30.554110986123817
rfingers 7.125020000000002
rthumb 6.576550711351889 0.41679869963364524
lclavicle -3.977538665631099E-15 -1.7172696577488687E-15
lhumerus -34.58119182253616 7.232946082627329 79.49289228878175
lradius 17.92520397361121
lwrist -0.16927901802614542
lhand -27.603134543469835 27.908211934068948
lfingers 7.125019999999998
lthumb -1.0447332589239293 58.01196628944837
rfemur -15.32948684483016 4.562953530486974 26.45693033567808
rtibia 43.18516523068192
rfoot -6.964850006582433 -6.720471902522956
rtoes 5.2930560267898485
lfemur -9.992199723277832 -3.6112999632768226 -20.301904784309876
ltibia 31.085733620379187
lfoot -7.356561193700769 -1.711980404850538
ltoes -0.7752166844666917
179
root 0 0 0 -4.117838347728991 -5.447987523272099 -3.7511003143228674
lowerback 8.616879266760572 1.64121598608833 2.8535491000219997
upperback 1.9140527214137424 2.4877827564053403 1.217227688690946
thorax -2.621774190427718 1.1872866167936094 -0.5262483253751878
lowerneck -14.122936791096278 -2.814003781618595 -2.155969052087485
upperneck 23.571089688121113 -4.003814443642302 2.5805857395477405
head 9.675506219497088 -1.7337110926046515 0.67193642545828
rclavicle -3.103946641494499E-15 -1.90260248908422E-15
rhumerus -31.24214467853214 -19.126253786472947 -84.02605325685235
rradius 21.4129435791626
rwrist 15.4569097393064
rhand -19.848363471172764 30.23333521095813
rfingers 7.125019999999999
rthumb 6.509343486715223 0.0831657475979739
lclavicle -4.253654593252893E-15 -1.810127540060383E-15
lhumerus -34.38411067266515 6.948830401888983 79.50582857235841
lradius 18.24363564174251
lwrist 0.14255349532459238
lhand -27.709724071297842 28.067751545456563
lfingers 7.125020000000001
lthumb -1.147981561327926 58.17639927128537
rfemur -16.976956842280394 4.28937637266001 25.785790422422913
rtibia 44.12210480866747
rfoot -6.287712865345295 -6.956258552069572
rtoes 5.237080715453947
lfemur -5.837328989173145 -4.86886901338597 -21.363560313890112
ltibia 28.979162744437915
lfoot -9.760228961989156 -0.6726702677491656
ltoes -1.3399538187687412
180
root 0 0 0 -3.863657395659731 -3.046669648020373 0.005447835452149441
lowerback 9.122073004574665 -5.572969534983763E-4 -0.7331028884589796
upperback 2.2546859957014767 -0.16057285874522664 0.9594208050118668
thorax -2.609980601084402 -0.039030743089969344 1.5476743821090504
lowerneck -14.457835976427505 -2.106231650169513 -2.355802465255954
upperneck 18.573235435219512 -2.725175930906603 1.8685899632664662
head 8.01488397236198 -1.2686692562386777 0.6631607093100673
rclavicle -2.8338082571852675E-15 -1.5830238021854154E-15
rhumerus -34.45782209589126 -20.14881193985061 -86.13850214637614
rradius 17.453003442632927
rwrist 16.38658349658277
rhand -19.562359575949994 29.14898720518064
rfingers 7.125019999999992
rthumb 6.792771626788244 -0.9758681194892205
lclavicle -3.952076981675951E-15 -1.5654619027359718E-15
lhumerus -33.81153844477086 6.210146864178683 79.57084170830068
lradius 19.035917693006986
lwrist 0.851436606589469
lhand -27.94970475018518 28.297227814102023
lfingers 7.125020000000006
lthumb -1.385532263018467 58.41203852073346
rfemur -20.890446494766014 3.7607638143298416 24.16264306541978
rtibia 45.210262970449634
rfoot -5.200679608704194 -7.669069038493278
rtoes 4.609258602236426
lfemur 2.117573048695985 -6.879667730604829 -23.291237542242076
ltibia 25.429669223988032
lfoot -14.278138635259836 1.086152340261748
ltoes -3.350384166478758
181
root 0 0 0 -2.857946701475133 -1.5022894605680888 1.1713747436796536
lowerback 9.31720189634247 -0.6318540173668911 -1.9718384525629837
upperback 2.126643079948996 -1.1648703893278796 0.8546181099725413
thorax -2.8790273169478606 -0.5100362746941005 2.2337398578089784
lowerneck -14.651280557889198 -1.980850423941598 -2.51266227162562
upperneck 15.302863159997665 -2.3793605277810124 1.6501462701618084
head 6.932471252244673 -1.1907392588369028 0.6928687520774941
rclavicle -1.9451848179379366E-15 -5.417948687576043E-16
rhumerus -35.66046863141296 -21.594390664494142 -86.60752495597431
rradius 15.480908504613353
rwrist 16.890727295126947
rhand -19.403514493419 28.420148943194633
rfingers 7.125019999999988
rthumb 6.94780110792994 -1.673821837552211
lclavicle -1.8840500125163092E-15 -4.7828508037322215E-16
lhumerus -33.42309232985923 4.633271438792753 79.3446730067355
lradius 21.732873071346315
lwrist 2.7969733727422925
lhand -28.24741757693443 28.195273766072024
lfingers 7.125020000000008
lthumb -1.684656285544074 58.318963358488496
rfemur -23.007579420121218 3.4832564308958367 22.798454731855756
rtibia 44.289952098621825
rfoot -4.875669069096415 -8.125833787008109
rtoes 3.685913168742683
lfemur 5.489314645549702 -7.315217312433815 -24.233057703328058
ltibia 24.22740060944374
lfoot -15.89097853464843 1.4260862118365067
ltoes -4.256471585669111
182
root 0 0 0 -2.0080446225688053 -0.48360966311676856 1.408289570041417
lowerback 9.613131268210138 -1.0305218308093314 -2.58295441651319
upperback 1.8225514728317844 -1.7435046656504098 1.0631650443652407
thorax -3.355081521135363 -0.7814443052405518 2.841513103292702
lowerneck -14.670603187089405 -2.0704971710370943 -2.459501874891377
upperneck 14.558663128254256 -2.3580969122870314 1.2430549417257317
head 6.694115198143107 -1.2444761043591712 0.5663998755417113
rclavicle -6.338010910703976E-17 -4.555410914554419E-16
rhumerus -35.472809181919594 -23.926098348321098 -85.72732878532294
rradius 14.965814248504415
rwrist 17.35851288557033
rhand -19.499309834210102 27.711969129823885
rfingers 7.125019999999985
rthumb 6.855676297547913 -2.374918252325017
lclavicle 1.280390825437696E-15 -1.5607716947666722E-16
lhumerus -32.950541628151875 2.0562570798639936 79.0838148983109
lradius 26.344503669234232
lwrist 6.081881159320089
lhand -28.65470909215621 27.82442824891652
lfingers 7.125020000000008
lthumb -2.0917778475233515 57.96059245734432
rfemur -23.570462112626256 3.4475586165461394 22.0653038803185
rtibia 42.65707186683893
rfoot -5.058235093820126 -8.329258811368877
rtoes 2.9527332088093776
lfemur 7.143579874954557 -7.1904308754592545 -24.663057959316692
ltibia 24.182170274686598
lfoot -16.33771145506678 1.1920969907917485
ltoes -4.894329081359448
183
root 0 0 0 -1.6926342380981834 -0.06931633484787136 1.4585648430559126
lowerback 9.652359110630893 -1.1949267938560486 -2.833764315130839
upperback 1.4063828544390717 -1.9751395822122106 1.1268156593018708
thorax -3.8202713134055717 -0.8936018559042453 3.0644927281265826
lowerneck -15.18118517849388 -2.1173816075303025 -2.367768341821746
upperneck 14.25859074113923 -2.3721173795479435 0.9014107125876732
head 6.698657539269448 -1.2761237142607809 0.4375452638090309
rclavicle 1.9821440118206886E-15 -1.0921667184469898E-15
rhumerus -34.67744033907845 -26.370404627898086 -84.22424619331736
rradius 15.376641888415598
rwrist 17.36238653072797
rhand -19.742637068996604 26.97411988884911
rfingers 7.125019999999985
rthumb 6.620013122224482 -3.132193870309422
lclavicle 3.5431975866356357E-15 -5.981549747607991E-16
lhumerus -32.18354648560272 -0.7804399337536813 79.20752888097316
lradius 30.94931116623423
lwrist 9.458616138943452
lhand -29.0873892924901 27.557112581705933
lfingers 7.1250200000000055
lthumb -2.5197771539187066 57.70005596621611
rfemur -23.386881059247017 3.6368573992235045 22.13021490632886
rtibia 41.20000705163591
rfoot -5.693668388859858 -8.483912579516442
rtoes 2.4749615894510937
lfemur 7.872012892120288 -6.947177098763172 -24.786853815740706
ltibia 24.567591557036778
lfoot -16.346581148699016 0.8693248945795657
ltoes -5.388790093779388
